<svg xmlns="http://www.w3.org/2000/svg" width="32" height="32" fill="none"><rect width="32" height="32" fill="url(#a)" rx="8"/><g fill="#fff" clip-path="url(#b)"><path d="M7.48 14.8c-2.102 1.798-2.948 3.707-3.147 4.579l2.442 1.908c.2-.872 1.045-2.781 3.147-4.579.965-.824 2.048-1.233 3.211-1.673 1.373-.519 2.857-1.08 4.386-2.414 3.31-2.889 4.124-5.505 4.124-5.505l-2.442-1.908s-.813 2.616-4.123 5.505c-1.53 1.335-3.014 1.895-4.387 2.414-1.163.44-2.246.85-3.21 1.674ZM14.48 20.306c-2.102 1.797-2.948 3.706-3.147 4.578l2.442 1.908c.2-.873 1.045-2.781 3.147-4.579 1.013-.865 2.125-1.312 3.336-1.8 1.305-.525 2.725-1.097 4.261-2.287 1.9-1.472 3.148-3.598 3.148-3.598l-2.442-1.907s-.323 1.132-3.148 3.597c-1.529 1.335-3.013 1.895-4.386 2.414-1.163.44-2.246.85-3.21 1.674Z"/><path d="M7.752 22.159c.199-.872 1.045-2.781 3.147-4.579.964-.824 2.048-1.233 3.211-1.673 1.373-.519 2.857-1.08 4.386-2.414 4.122-3.597 4.992-7.522 4.992-7.522L25.93 7.88s-1.085 4.415-4.992 7.521c-1.538 1.223-2.973 1.793-4.293 2.318-1.2.476-2.303.915-3.304 1.77-2.102 1.797-2.948 3.706-3.147 4.578L7.752 22.16Z"/></g><defs><linearGradient id="a" x1="37.047" x2="0" y1="26.781" y2="1.204" gradientUnits="userSpaceOnUse"><stop stop-color="#FEDA3B"/><stop offset=".411" stop-color="#EF5541"/><stop offset=".789" stop-color="#801FDB"/><stop offset="1" stop-color="#7E2A89"/></linearGradient><clipPath id="b"><path fill="#fff" d="M4.333 4.333h23.333v23.333H4.333z"/></clipPath></defs></svg>