<svg width="96" height="96" viewBox="0 0 96 96" fill="none" xmlns="http://www.w3.org/2000/svg">
<path d="M18.7907 43.8886C11.5819 50.0508 8.68217 56.5956 8 59.5855L16.3721 66.1258C17.0543 63.1359 19.954 56.5912 27.1628 50.429C30.4688 47.603 34.1837 46.1989 38.1712 44.6917C42.8788 42.9124 47.9663 40.9895 53.2094 36.4139C64.5582 26.51 67.3489 17.5404 67.3489 17.5404L58.9768 11C58.9768 11 56.1861 19.9696 44.8373 29.8736C39.5942 34.4491 34.5067 36.372 29.7991 38.1514C25.8116 39.6585 22.0967 41.0626 18.7907 43.8886Z" fill="url(#paint0_linear_2004_274)"/>
<path d="M42.7906 62.7628C35.5818 68.925 32.6821 75.4698 31.9999 78.4597L40.372 85C41.0542 82.0101 43.9539 75.4654 51.1627 69.3032C54.6334 66.3364 58.4451 64.8022 62.5985 63.1305C67.0721 61.3299 71.9421 59.3698 77.2093 55.2881C83.7209 50.2421 88 42.9543 88 42.9543L79.6279 36.4139C79.6279 36.4139 78.5214 40.2965 68.8372 48.7478C63.5941 53.3233 58.5066 55.2462 53.7991 57.0255C49.8115 58.5327 46.0966 59.9368 42.7906 62.7628Z" fill="url(#paint1_linear_2004_274)"/>
<path d="M19.7209 69.1157C20.4031 66.1258 23.3028 59.5811 30.5116 53.4189C33.8175 50.5929 37.5325 49.1888 41.52 47.6816C46.2276 45.9023 51.3151 43.9794 56.5581 39.4038C70.6907 27.0706 73.6744 13.6162 73.6744 13.6162L82.0465 20.1565C82.0465 20.1565 78.3256 35.2928 64.9302 45.9442C59.658 50.1365 54.7372 52.0914 50.2099 53.8901C46.0998 55.5229 42.314 57.027 38.8837 59.9592C31.6749 66.1214 28.7752 72.6662 28.093 75.6561L19.7209 69.1157Z" fill="url(#paint2_linear_2004_274)"/>
<defs>
<linearGradient id="paint0_linear_2004_274" x1="72.7492" y1="11" x2="11.4783" y2="11" gradientUnits="userSpaceOnUse">
<stop stop-color="#FEDA3B"/>
<stop offset="0.47" stop-color="#EF5541"/>
<stop offset="0.815" stop-color="#801FDB"/>
<stop offset="1" stop-color="#7E2A89"/>
</linearGradient>
<linearGradient id="paint1_linear_2004_274" x1="72.7492" y1="11" x2="11.4783" y2="11" gradientUnits="userSpaceOnUse">
<stop stop-color="#FEDA3B"/>
<stop offset="0.47" stop-color="#EF5541"/>
<stop offset="0.815" stop-color="#801FDB"/>
<stop offset="1" stop-color="#7E2A89"/>
</linearGradient>
<linearGradient id="paint2_linear_2004_274" x1="72.7492" y1="11" x2="11.4783" y2="11" gradientUnits="userSpaceOnUse">
<stop stop-color="#FEDA3B"/>
<stop offset="0.47" stop-color="#EF5541"/>
<stop offset="0.815" stop-color="#801FDB"/>
<stop offset="1" stop-color="#7E2A89"/>
</linearGradient>
</defs>
</svg>
