<svg width="32" height="32" viewBox="0 0 32 32" fill="none" xmlns="http://www.w3.org/2000/svg">
<rect width="32" height="32" rx="8" fill="url(#paint0_linear_2_1830)"/>
<rect width="32" height="32" rx="8" fill="#34F872" fill-opacity="0.6"/>
<g clip-path="url(#clip0_2_1830)">
<path d="M7.4806 14.8008C5.37803 16.5982 4.53228 18.507 4.33331 19.3791L6.77518 21.2867C6.97414 20.4146 7.8199 18.5058 9.92247 16.7085C10.8867 15.8842 11.9702 15.4747 13.1333 15.0351C14.5063 14.5161 15.9901 13.9553 17.5194 12.6207C20.8295 9.73208 21.6434 7.11594 21.6434 7.11594L19.2015 5.20834C19.2015 5.20834 18.3876 7.82448 15.0775 10.7131C13.5483 12.0477 12.0644 12.6085 10.6914 13.1275C9.52836 13.5671 8.44484 13.9766 7.4806 14.8008Z" fill="url(#paint1_linear_2_1830)"/>
<path d="M14.4806 20.3058C12.378 22.1031 11.5323 24.012 11.3333 24.8841L13.7752 26.7917C13.9741 25.9196 14.8199 24.0107 16.9224 22.2134C17.9347 21.3481 19.0465 20.9007 20.2579 20.4131C21.5627 19.8879 22.9831 19.3162 24.5194 18.1257C26.4186 16.6539 27.6666 14.5283 27.6666 14.5283L25.2248 12.6207C25.2248 12.6207 24.9021 13.7531 22.0775 16.2181C20.5483 17.5526 19.0644 18.1135 17.6914 18.6324C16.5283 19.072 15.4448 19.4816 14.4806 20.3058Z" fill="url(#paint2_linear_2_1830)"/>
<path d="M7.7519 22.1588C7.95087 21.2867 8.79662 19.3778 10.8992 17.5805C11.8634 16.7563 12.9469 16.3467 14.11 15.9071C15.483 15.3882 16.9669 14.8273 18.4961 13.4928C22.6181 9.8956 23.4884 5.97139 23.4884 5.97139L25.9302 7.87899C25.9302 7.87899 24.8449 12.2937 20.938 15.4004C19.4002 16.6231 17.965 17.1933 16.6445 17.7179C15.4458 18.1942 14.3416 18.6329 13.3411 19.4881C11.2385 21.2854 10.3927 23.1943 10.1938 24.0664L7.7519 22.1588Z" fill="url(#paint3_linear_2_1830)"/>
</g>
<defs>
<linearGradient id="paint0_linear_2_1830" x1="16" y1="0" x2="16" y2="32" gradientUnits="userSpaceOnUse">
<stop stop-color="#373740"/>
<stop offset="0.483196" stop-color="#1A1A1F"/>
<stop offset="1" stop-color="#151519"/>
</linearGradient>
<linearGradient id="paint1_linear_2_1830" x1="23.2185" y1="5.20834" x2="5.34781" y2="5.20834" gradientUnits="userSpaceOnUse">
<stop stop-color="#FEDA3B"/>
<stop offset="0.47" stop-color="#EF5541"/>
<stop offset="0.815" stop-color="#801FDB"/>
<stop offset="1" stop-color="#7E2A89"/>
</linearGradient>
<linearGradient id="paint2_linear_2_1830" x1="23.2185" y1="5.20834" x2="5.34781" y2="5.20834" gradientUnits="userSpaceOnUse">
<stop stop-color="#FEDA3B"/>
<stop offset="0.47" stop-color="#EF5541"/>
<stop offset="0.815" stop-color="#801FDB"/>
<stop offset="1" stop-color="#7E2A89"/>
</linearGradient>
<linearGradient id="paint3_linear_2_1830" x1="23.2185" y1="5.20834" x2="5.34781" y2="5.20834" gradientUnits="userSpaceOnUse">
<stop stop-color="#FEDA3B"/>
<stop offset="0.47" stop-color="#EF5541"/>
<stop offset="0.815" stop-color="#801FDB"/>
<stop offset="1" stop-color="#7E2A89"/>
</linearGradient>
<clipPath id="clip0_2_1830">
<rect width="23.3333" height="23.3333" fill="white" transform="translate(4.33331 4.33334)"/>
</clipPath>
</defs>
</svg>
