<svg xmlns="http://www.w3.org/2000/svg" width="32" height="32" fill="none"><g clip-path="url(#a)"><path fill="url(#b)" d="M6.264 14.63c-2.403 2.054-3.37 4.235-3.597 5.232l2.79 2.18c.228-.997 1.194-3.178 3.597-5.232 1.102-.942 2.34-1.41 3.67-1.913 1.569-.593 3.265-1.234 5.012-2.759 3.783-3.301 4.714-6.291 4.714-6.291l-2.791-2.18s-.93 2.99-4.713 6.29c-1.748 1.526-3.444 2.167-5.013 2.76-1.33.502-2.567.97-3.67 1.912Z"/><path fill="url(#c)" d="M14.264 20.92c-2.403 2.055-3.37 4.237-3.597 5.233l2.79 2.18c.228-.996 1.194-3.178 3.597-5.232 1.157-.989 2.428-1.5 3.812-2.057 1.491-.6 3.115-1.254 4.87-2.615 2.171-1.682 3.597-4.11 3.597-4.11l-2.79-2.181s-.37 1.294-3.597 4.111c-1.748 1.525-3.444 2.166-5.013 2.76-1.33.502-2.567.97-3.67 1.912Z"/><path fill="url(#d)" d="M6.574 23.039c.227-.997 1.194-3.179 3.597-5.233 1.102-.942 2.34-1.41 3.669-1.912 1.57-.593 3.265-1.234 5.013-2.76 4.71-4.11 5.705-8.595 5.705-8.595l2.79 2.18s-1.24 5.045-5.705 8.596c-1.757 1.397-3.397 2.049-4.906 2.648-1.37.545-2.632 1.046-3.776 2.023-2.403 2.055-3.37 4.236-3.597 5.233l-2.79-2.18Z"/></g><defs><linearGradient id="b" x1="24.25" x2="3.826" y1="3.667" y2="3.667" gradientUnits="userSpaceOnUse"><stop stop-color="#FEDA3B"/><stop offset=".47" stop-color="#EF5541"/><stop offset=".815" stop-color="#801FDB"/><stop offset="1" stop-color="#7E2A89"/></linearGradient><linearGradient id="c" x1="24.25" x2="3.826" y1="3.667" y2="3.667" gradientUnits="userSpaceOnUse"><stop stop-color="#FEDA3B"/><stop offset=".47" stop-color="#EF5541"/><stop offset=".815" stop-color="#801FDB"/><stop offset="1" stop-color="#7E2A89"/></linearGradient><linearGradient id="d" x1="24.25" x2="3.826" y1="3.667" y2="3.667" gradientUnits="userSpaceOnUse"><stop stop-color="#FEDA3B"/><stop offset=".47" stop-color="#EF5541"/><stop offset=".815" stop-color="#801FDB"/><stop offset="1" stop-color="#7E2A89"/></linearGradient><clipPath id="a"><path fill="#fff" d="M2.667 2.667h26.667v26.667H2.667z"/></clipPath></defs></svg>