<svg width="32" height="32" viewBox="0 0 32 32" fill="none" xmlns="http://www.w3.org/2000/svg">
<rect width="32" height="32" rx="8" fill="url(#paint0_linear_8_926)"/>
<g clip-path="url(#clip0_8_926)">
<path d="M7.4806 14.8009C5.37803 16.5982 4.53228 18.5071 4.33331 19.3791L6.77518 21.2867C6.97414 20.4147 7.8199 18.5058 9.92247 16.7085C10.8867 15.8842 11.9702 15.4747 13.1333 15.0351C14.5063 14.5162 15.9901 13.9553 17.5194 12.6208C20.8295 9.73212 21.6434 7.11598 21.6434 7.11598L19.2015 5.20837C19.2015 5.20837 18.3876 7.82451 15.0775 10.7132C13.5483 12.0477 12.0644 12.6086 10.6914 13.1275C9.52836 13.5671 8.44484 13.9766 7.4806 14.8009Z" fill="url(#paint1_linear_8_926)"/>
<path d="M7.4806 14.8009C5.37803 16.5982 4.53228 18.5071 4.33331 19.3791L6.77518 21.2867C6.97414 20.4147 7.8199 18.5058 9.92247 16.7085C10.8867 15.8842 11.9702 15.4747 13.1333 15.0351C14.5063 14.5162 15.9901 13.9553 17.5194 12.6208C20.8295 9.73212 21.6434 7.11598 21.6434 7.11598L19.2015 5.20837C19.2015 5.20837 18.3876 7.82451 15.0775 10.7132C13.5483 12.0477 12.0644 12.6086 10.6914 13.1275C9.52836 13.5671 8.44484 13.9766 7.4806 14.8009Z" fill="url(#paint2_linear_8_926)"/>
<path d="M14.4806 20.3059C12.378 22.1032 11.5323 24.0121 11.3333 24.8841L13.7752 26.7917C13.9741 25.9197 14.8199 24.0108 16.9224 22.2135C17.9347 21.3482 19.0465 20.9007 20.2579 20.4131C21.5627 19.8879 22.9831 19.3162 24.5194 18.1257C26.4186 16.654 27.6666 14.5284 27.6666 14.5284L25.2248 12.6208C25.2248 12.6208 24.9021 13.7532 22.0775 16.2181C20.5483 17.5527 19.0644 18.1135 17.6914 18.6325C16.5283 19.0721 15.4448 19.4816 14.4806 20.3059Z" fill="url(#paint3_linear_8_926)"/>
<path d="M14.4806 20.3059C12.378 22.1032 11.5323 24.0121 11.3333 24.8841L13.7752 26.7917C13.9741 25.9197 14.8199 24.0108 16.9224 22.2135C17.9347 21.3482 19.0465 20.9007 20.2579 20.4131C21.5627 19.8879 22.9831 19.3162 24.5194 18.1257C26.4186 16.654 27.6666 14.5284 27.6666 14.5284L25.2248 12.6208C25.2248 12.6208 24.9021 13.7532 22.0775 16.2181C20.5483 17.5527 19.0644 18.1135 17.6914 18.6325C16.5283 19.0721 15.4448 19.4816 14.4806 20.3059Z" fill="url(#paint4_linear_8_926)"/>
<path d="M7.7519 22.1588C7.95087 21.2867 8.79662 19.3779 10.8992 17.5805C11.8634 16.7563 12.9469 16.3468 14.11 15.9072C15.483 15.3882 16.9669 14.8274 18.4961 13.4928C22.6181 9.89563 23.4884 5.97142 23.4884 5.97142L25.9302 7.87903C25.9302 7.87903 24.8449 12.2938 20.938 15.4004C19.4002 16.6232 17.965 17.1934 16.6445 17.718C15.4458 18.1942 14.3416 18.6329 13.3411 19.4881C11.2385 21.2855 10.3927 23.1943 10.1938 24.0664L7.7519 22.1588Z" fill="url(#paint5_linear_8_926)"/>
<path d="M7.7519 22.1588C7.95087 21.2867 8.79662 19.3779 10.8992 17.5805C11.8634 16.7563 12.9469 16.3468 14.11 15.9072C15.483 15.3882 16.9669 14.8274 18.4961 13.4928C22.6181 9.89563 23.4884 5.97142 23.4884 5.97142L25.9302 7.87903C25.9302 7.87903 24.8449 12.2938 20.938 15.4004C19.4002 16.6232 17.965 17.1934 16.6445 17.718C15.4458 18.1942 14.3416 18.6329 13.3411 19.4881C11.2385 21.2855 10.3927 23.1943 10.1938 24.0664L7.7519 22.1588Z" fill="url(#paint6_linear_8_926)"/>
</g>
<defs>
<linearGradient id="paint0_linear_8_926" x1="16" y1="0" x2="16" y2="32" gradientUnits="userSpaceOnUse">
<stop stop-color="white"/>
<stop offset="0.503469" stop-color="#EBF0F7"/>
</linearGradient>
<linearGradient id="paint1_linear_8_926" x1="23.2185" y1="5.20837" x2="5.34781" y2="5.20837" gradientUnits="userSpaceOnUse">
<stop stop-color="#FEDA3B"/>
<stop offset="0.47" stop-color="#EF5541"/>
<stop offset="0.815" stop-color="#801FDB"/>
<stop offset="1" stop-color="#7E2A89"/>
</linearGradient>
<linearGradient id="paint2_linear_8_926" x1="29.0618" y1="4.96169" x2="4.4007" y2="4.96169" gradientUnits="userSpaceOnUse">
<stop stop-color="#BBA67D"/>
<stop offset="0.227273" stop-color="#E3D4B7"/>
<stop offset="0.457071" stop-color="#EBE1CE"/>
<stop offset="0.686869" stop-color="#DDD8CD"/>
<stop offset="0.868687" stop-color="#C1C1C2"/>
<stop offset="1" stop-color="#A1A7B2"/>
</linearGradient>
<linearGradient id="paint3_linear_8_926" x1="23.2185" y1="5.20837" x2="5.34781" y2="5.20837" gradientUnits="userSpaceOnUse">
<stop stop-color="#FEDA3B"/>
<stop offset="0.47" stop-color="#EF5541"/>
<stop offset="0.815" stop-color="#801FDB"/>
<stop offset="1" stop-color="#7E2A89"/>
</linearGradient>
<linearGradient id="paint4_linear_8_926" x1="29.0618" y1="4.96169" x2="4.4007" y2="4.96169" gradientUnits="userSpaceOnUse">
<stop stop-color="#BBA67D"/>
<stop offset="0.227273" stop-color="#E3D4B7"/>
<stop offset="0.457071" stop-color="#EBE1CE"/>
<stop offset="0.686869" stop-color="#DDD8CD"/>
<stop offset="0.868687" stop-color="#C1C1C2"/>
<stop offset="1" stop-color="#A1A7B2"/>
</linearGradient>
<linearGradient id="paint5_linear_8_926" x1="23.2185" y1="5.20837" x2="5.34781" y2="5.20837" gradientUnits="userSpaceOnUse">
<stop stop-color="#FEDA3B"/>
<stop offset="0.47" stop-color="#EF5541"/>
<stop offset="0.815" stop-color="#801FDB"/>
<stop offset="1" stop-color="#7E2A89"/>
</linearGradient>
<linearGradient id="paint6_linear_8_926" x1="29.0618" y1="4.96169" x2="4.4007" y2="4.96169" gradientUnits="userSpaceOnUse">
<stop stop-color="#BBA67D"/>
<stop offset="0.227273" stop-color="#E3D4B7"/>
<stop offset="0.457071" stop-color="#EBE1CE"/>
<stop offset="0.686869" stop-color="#DDD8CD"/>
<stop offset="0.868687" stop-color="#C1C1C2"/>
<stop offset="1" stop-color="#A1A7B2"/>
</linearGradient>
<clipPath id="clip0_8_926">
<rect width="23.3333" height="23.3333" fill="white" transform="translate(4.33331 4.33337)"/>
</clipPath>
</defs>
</svg>
